<svg width="18" height="18" viewBox="0 0 18 18" fill="none" xmlns="http://www.w3.org/2000/svg">
<g id="vuesax/bold/microphone-2">
<g id="microphone-2">
<path id="Vector" d="M14.34 6.84002C14.0475 6.84002 13.815 7.07252 13.815 7.36502V8.55002C13.815 11.205 11.655 13.365 9.00001 13.365C6.34501 13.365 4.18501 11.205 4.18501 8.55002V7.35752C4.18501 7.06502 3.95251 6.83252 3.66001 6.83252C3.36751 6.83252 3.13501 7.06502 3.13501 7.35752V8.54252C3.13501 11.595 5.48251 14.1075 8.47501 14.3775V15.975C8.47501 16.2675 8.70751 16.5 9.00001 16.5C9.29251 16.5 9.52501 16.2675 9.52501 15.975V14.3775C12.51 14.115 14.865 11.595 14.865 8.54252V7.35752C14.8575 7.07252 14.625 6.84002 14.34 6.84002Z" fill="white"/>
<path id="Vector_2" d="M9.00006 1.5C7.17006 1.5 5.68506 2.985 5.68506 4.815V8.655C5.68506 10.485 7.17006 11.97 9.00006 11.97C10.8301 11.97 12.3151 10.485 12.3151 8.655V4.815C12.3151 2.985 10.8301 1.5 9.00006 1.5ZM9.98256 6.7125C9.93006 6.9075 9.75756 7.035 9.56256 7.035C9.52506 7.035 9.48756 7.0275 9.45006 7.02C9.15756 6.9375 8.85006 6.9375 8.55756 7.02C8.31756 7.0875 8.08506 6.945 8.02506 6.7125C7.95756 6.48 8.10006 6.24 8.33256 6.18C8.77506 6.06 9.24006 6.06 9.68256 6.18C9.90756 6.24 10.0426 6.48 9.98256 6.7125ZM10.3801 5.2575C10.3126 5.4375 10.1476 5.5425 9.96756 5.5425C9.91506 5.5425 9.87006 5.535 9.81756 5.52C9.29256 5.325 8.70756 5.325 8.18256 5.52C7.95756 5.6025 7.70256 5.4825 7.62006 5.2575C7.53756 5.0325 7.65756 4.7775 7.88256 4.7025C8.60256 4.44 9.39756 4.44 10.1176 4.7025C10.3426 4.785 10.4626 5.0325 10.3801 5.2575Z" fill="white"/>
</g>
</g>
</svg>
