<svg width="18" height="18" viewBox="0 0 18 18" fill="none" xmlns="http://www.w3.org/2000/svg">
<g id="vuesax/bold/send-2">
<g id="send-2">
<path id="Vector" d="M12.2627 2.69447L12.2632 2.69431C13.7049 2.21373 14.6382 2.42487 15.1085 2.89578C15.5793 3.36723 15.79 4.30307 15.313 5.74495C15.313 5.74511 15.3129 5.74526 15.3129 5.74541L13.0558 12.5092L13.0557 12.5096C12.6876 13.6156 12.2724 14.4059 11.856 14.9098C11.4384 15.4153 11.0657 15.5818 10.7701 15.5818C10.4745 15.5818 10.1018 15.4153 9.68414 14.9098C9.2678 14.4059 8.85255 13.6156 8.48451 12.5096L7.81711 10.4999L7.73809 10.262L7.50017 10.183L5.49047 9.51555C5.49041 9.51553 5.49034 9.51551 5.49028 9.51549C5.49024 9.51548 5.49021 9.51547 5.49017 9.51545C4.38423 9.14738 3.59395 8.73259 3.09004 8.31678C2.58445 7.89958 2.41821 7.52767 2.41821 7.23278C2.41821 6.93776 2.5846 6.56529 3.09041 6.14707C3.59446 5.73032 4.38483 5.31419 5.49074 4.9443C5.49088 4.94425 5.49103 4.9442 5.49117 4.94416L12.2627 2.69447ZM9.84864 9.47353L9.84957 9.4726L12.6986 6.60853C12.6988 6.60834 12.699 6.60816 12.6992 6.60798C13.1114 6.19516 13.1112 5.519 12.6986 5.10642C12.2859 4.69366 11.6093 4.69366 11.1965 5.10642L11.1956 5.10735L8.34654 7.97142C8.34631 7.97164 8.34608 7.97187 8.34585 7.9721C7.93377 8.38492 7.934 9.06099 8.34654 9.47352C8.55774 9.68473 8.82963 9.78497 9.09759 9.78497C9.36554 9.78497 9.63743 9.68473 9.84864 9.47353Z" fill="white" stroke="white"/>
</g>
</g>
</svg>
